<svg width="72" height="72" viewBox="0 0 72 72" fill="none" xmlns="http://www.w3.org/2000/svg">
  <path d="M9.59998 14.4016C9.59998 11.7506 11.749 9.60162 14.4 9.60156H39.6C42.251 9.60156 44.4 11.7506 44.4 14.4016V39.6015C44.4 42.2525 42.251 44.4015 39.6 44.4015H14.4C11.749 44.4016 9.59998 42.2525 9.59998 39.6015V14.4016Z 
           M27.6 32.4016C27.6 29.7506 29.749 27.6016 32.4 27.6016H57.6C60.2508 27.6016 62.4 29.7506 62.4 32.4016V57.6015C62.4 60.2524 60.2508 62.4016 57.6 62.4016H32.4C29.749 62.4016 27.6 60.2524 27.6 57.6016V32.4016Z"
        fill="url(#paint1_radial_5179_7919)"/>
  <defs>
    <radialGradient id="paint1_radial_5179_7919" cx="0" cy="0" r="1" gradientUnits="userSpaceOnUse" gradientTransform="translate(62.4 8.70157) rotate(133.87) scale(75.3216)">
      <stop stop-color="#FFDCCC"/>
      <stop offset="0.333333" stop-color="#ff00ff"/>
      <stop offset="0.666667" stop-color="#9a1b7a"/>
      <stop offset="1" stop-color="#000000"/>
    </radialGradient>
  </defs>
</svg>
